<?xml version="1.0" encoding="UTF-8"?>
<svg version="1.1" xmlns="http://www.w3.org/2000/svg" width="512" height="512">
<path d="M0 0 C1.04542969 0.36609375 2.09085937 0.7321875 3.16796875 1.109375 C14.35332159 5.439189 24.48049144 11.96498364 34.75292969 18.078125 C40.10074068 21.24338576 45.48815602 24.33929331 50.875 27.4375 C53.0599568 28.69650878 55.24485239 29.95562381 57.4296875 31.21484375 C58.51475586 31.83987793 59.59982422 32.46491211 60.71777344 33.10888672 C66.14659942 36.23680148 71.57319281 39.36858448 77 42.5 C79.16665583 43.75001879 81.3333225 45.00001878 83.5 46.25 C87.83333333 48.75 92.16666667 51.25 96.5 53.75 C97.57266113 54.36883057 98.64532227 54.98766113 99.75048828 55.62524414 C101.91557071 56.87435518 104.08060982 58.12354129 106.24560547 59.37280273 C111.68615706 62.51202309 117.12747216 65.64990563 122.5703125 68.78515625 C126.90840126 71.28405531 131.24412102 73.78699255 135.578125 76.29296875 C139.89359527 78.78797327 144.21745918 81.26756412 148.546875 83.73828125 C174.25678087 98.46997695 194.94424258 114.42315072 203.10437012 144.11791992 C205.53259223 153.64291231 205.56447458 162.9622171 205.51757812 172.73828125 C205.52301243 174.66540044 205.53014236 176.59251548 205.53881836 178.5196228 C205.55689917 183.70564026 205.55004778 188.89133588 205.53730202 194.07735825 C205.52709467 199.53375799 205.53658899 204.99013225 205.54284668 210.4465332 C205.55010073 219.60535573 205.54059448 228.76404875 205.52148438 237.92285156 C205.49972004 248.47483227 205.506773 259.02650369 205.52879 269.57847691 C205.54700814 278.67793942 205.54947109 287.77730944 205.53903532 296.87678432 C205.53283553 302.29409788 205.53186709 307.71126661 205.54518127 313.12857056 C205.55683301 318.22435431 205.54854572 323.31974372 205.52560425 328.41548538 C205.52036654 330.27288792 205.52174489 332.13032431 205.53065491 333.98771286 C205.59347193 348.42636425 204.26658107 362.35044916 197.25 375.3125 C196.90638428 375.97000244 196.56276855 376.62750488 196.20874023 377.30493164 C183.18405228 401.60126938 161.4234033 412.92353063 138.34495544 425.96531677 C132.53109407 429.25537732 126.7621919 432.62034139 121 436 C111.77242624 441.40429188 102.50004529 446.72652817 93.20898438 452.02050781 C85.11255828 456.63502826 77.04195629 461.29098856 69 466 C59.07202352 471.81289976 49.09967914 477.54545199 39.09667969 483.22802734 C33.89133028 486.18752434 28.69832037 489.16040658 23.56640625 492.24609375 C2.08648288 505.12682334 -20.22975104 511.92488963 -45.5390625 507.3125 C-49.1348926 506.40407976 -52.53258772 505.3122183 -56 504 C-57.04542969 503.63390625 -58.09085938 503.2678125 -59.16796875 502.890625 C-70.35332159 498.560811 -80.48049144 492.03501636 -90.75292969 485.921875 C-96.10074068 482.75661424 -101.48815602 479.66070669 -106.875 476.5625 C-109.0599568 475.30349122 -111.24485239 474.04437619 -113.4296875 472.78515625 C-114.51475586 472.16012207 -115.59982422 471.53508789 -116.71777344 470.89111328 C-122.14659942 467.76319852 -127.57319281 464.63141552 -133 461.5 C-135.16665583 460.24998121 -137.3333225 458.99998122 -139.5 457.75 C-146 454 -146 454 -152.5 450.25 C-153.57266113 449.63116943 -154.64532227 449.01233887 -155.75048828 448.37475586 C-157.91557071 447.12564482 -160.08060982 445.87645871 -162.24560547 444.62719727 C-167.68615706 441.48797691 -173.12747216 438.35009437 -178.5703125 435.21484375 C-182.90840126 432.71594469 -187.24412102 430.21300745 -191.578125 427.70703125 C-195.89359527 425.21202673 -200.21745918 422.73243588 -204.546875 420.26171875 C-230.25678087 405.53002305 -250.94424258 389.57684928 -259.10437012 359.88208008 C-261.53259223 350.35708769 -261.56447458 341.0377829 -261.51757812 331.26171875 C-261.52301243 329.33459956 -261.53014236 327.40748452 -261.53881836 325.4803772 C-261.55689917 320.29435974 -261.55004778 315.10866412 -261.53730202 309.92264175 C-261.52709467 304.46624201 -261.53658899 299.00986775 -261.54284668 293.5534668 C-261.55010073 284.39464427 -261.54059448 275.23595125 -261.52148438 266.07714844 C-261.49972004 255.52516773 -261.506773 244.97349631 -261.52879 234.42152309 C-261.54700814 225.32206058 -261.54947109 216.22269056 -261.53903532 207.12321568 C-261.53283553 201.70590212 -261.53186709 196.28873339 -261.54518127 190.87142944 C-261.55683301 185.77564569 -261.54854572 180.68025628 -261.52560425 175.58451462 C-261.52036654 173.72711208 -261.52174489 171.86967569 -261.53065491 170.01228714 C-261.59347193 155.57363575 -260.26658107 141.64955084 -253.25 128.6875 C-252.90638428 128.02999756 -252.56276855 127.37249512 -252.20874023 126.69506836 C-239.18405228 102.39873062 -217.4234033 91.07646937 -194.34495544 78.03468323 C-188.53109407 74.74462268 -182.7621919 71.37965861 -177 68 C-167.77242624 62.59570812 -158.50004529 57.27347183 -149.20898438 51.97949219 C-141.11255828 47.36497174 -133.04195629 42.70901144 -125 38 C-115.07202352 32.18710024 -105.09967914 26.45454801 -95.09667969 20.77197266 C-89.89133028 17.81247566 -84.69832037 14.83959342 -79.56640625 11.75390625 C-55.37496193 -2.75282394 -27.54050266 -10.42251358 0 0 Z M-60.75 48.4375 C-61.82854248 49.04803223 -62.90708496 49.65856445 -64.01831055 50.28759766 C-72.30657088 54.99391486 -80.54466132 59.78613096 -88.76660156 64.60717773 C-96.4794202 69.12764193 -104.23212407 73.57519174 -112 78 C-120.69418067 82.95349391 -129.36503104 87.94369465 -138 93 C-146.04356537 97.71000218 -154.11597107 102.36653093 -162.21420288 106.98168945 C-163.98897364 107.99371247 -165.76284858 109.00728589 -167.53637695 110.02148438 C-168.40760445 110.51968689 -168.40760445 110.51968689 -169.2964325 111.0279541 C-170.4641977 111.69578827 -171.63193258 112.36367548 -172.79963684 113.03161621 C-175.67337134 114.67436877 -178.55021067 116.31131886 -181.43115234 117.94140625 C-184.68877219 119.78478852 -187.93865932 121.64120046 -191.1875 123.5 C-192.14849609 124.03882813 -193.10949219 124.57765625 -194.09960938 125.1328125 C-206.25889551 132.13021884 -214.47910825 140.39756794 -219.375 153.75 C-220.58352867 160.03434909 -221.12520679 166.09080718 -221.13371277 172.48699951 C-221.13597833 173.19590623 -221.13824388 173.90481295 -221.14057809 174.63520169 C-221.14685761 176.9869614 -221.14609265 179.33866258 -221.14526367 181.69042969 C-221.14825896 183.38640415 -221.15166234 185.08237793 -221.15544128 186.77835083 C-221.16424829 191.36944916 -221.16661802 195.96052883 -221.16725707 200.55163479 C-221.1679695 203.4249001 -221.17010748 206.29816072 -221.17275429 209.17142487 C-221.18199712 219.20933837 -221.18609055 229.24723863 -221.18530273 239.28515625 C-221.18470238 248.61909637 -221.19524865 257.95297861 -221.2110464 267.2869041 C-221.22415361 275.31946099 -221.22948529 283.35199905 -221.22884732 291.38456655 C-221.22859325 296.17362204 -221.23139406 300.96262607 -221.24202538 305.75167084 C-221.25175992 310.25954726 -221.25174908 314.7673236 -221.24450874 319.2752037 C-221.2434695 320.92143018 -221.24578616 322.56766307 -221.2518692 324.21387863 C-221.30904554 340.77107254 -220.22654819 356.47877227 -208.11621094 369.07714844 C-200.87174341 375.65968493 -191.39621681 380.16421667 -182.9375 385 C-181.2211132 385.98571612 -179.50472872 386.9714363 -177.78848267 387.95739746 C-176.02332425 388.97105824 -174.25755668 389.98365132 -172.49169922 390.99609375 C-166.9880492 394.15292738 -161.49465798 397.32755119 -156 400.5 C-153.83337945 401.75007993 -151.66671268 403.00007976 -149.5 404.25 C-130 415.5 -130 415.5 -110.5 426.75 C-108.89016235 427.67872925 -108.89016235 427.67872925 -107.24780273 428.6262207 C-105.08840605 429.8720577 -102.92906331 431.11798818 -100.76977539 432.36401367 C-95.24232403 435.55348953 -89.71384879 438.74116885 -84.18359375 441.92578125 C-83.063479 442.57119873 -81.94336426 443.21661621 -80.78930664 443.8815918 C-78.57681324 445.15616462 -76.36377069 446.42978471 -74.15014648 447.70239258 C-68.63420135 450.87903311 -63.15197688 454.10021741 -57.70751953 457.39770508 C-47.91599995 463.28532151 -39.66744319 467.27065793 -28.0625 467.5625 C-27.34715088 467.58973145 -26.63180176 467.61696289 -25.89477539 467.64501953 C-14.72586933 467.56216601 -4.66676255 460.95153334 4.75 455.5625 C5.82854248 454.95196777 6.90708496 454.34143555 8.01831055 453.71240234 C16.30657088 449.00608514 24.54466132 444.21386904 32.76660156 439.39282227 C40.4794202 434.87235807 48.23212407 430.42480826 56 426 C64.69418067 421.04650609 73.36503104 416.05630535 82 411 C90.04356537 406.28999782 98.11597107 401.63346907 106.21420288 397.01831055 C107.98897364 396.00628753 109.76284858 394.99271411 111.53637695 393.97851562 C112.11719528 393.64638062 112.69801361 393.31424561 113.2964325 392.9720459 C114.4641977 392.30421173 115.63193258 391.63632452 116.79963684 390.96838379 C119.67337134 389.32563123 122.55021067 387.68868114 125.43115234 386.05859375 C128.68877219 384.21521148 131.93865932 382.35879954 135.1875 380.5 C136.14849609 379.96117187 137.10949219 379.42234375 138.09960938 378.8671875 C150.25889551 371.86978116 158.47910825 363.60243206 163.375 350.25 C164.58352867 343.96565091 165.12520679 337.90919282 165.13371277 331.51300049 C165.13597833 330.80409377 165.13824388 330.09518705 165.14057809 329.36479831 C165.14685761 327.0130386 165.14609265 324.66133742 165.14526367 322.30957031 C165.14825896 320.61359585 165.15166234 318.91762207 165.15544128 317.22164917 C165.16424829 312.63055084 165.16661802 308.03947117 165.16725707 303.44836521 C165.1679695 300.5750999 165.17010748 297.70183928 165.17275429 294.82857513 C165.18199712 284.79066163 165.18609055 274.75276137 165.18530273 264.71484375 C165.18470238 255.38090363 165.19524865 246.04702139 165.2110464 236.7130959 C165.22415361 228.68053901 165.22948529 220.64800095 165.22884732 212.61543345 C165.22859325 207.82637796 165.23139406 203.03737393 165.24202538 198.24832916 C165.25175992 193.74045274 165.25174908 189.2326764 165.24450874 184.7247963 C165.2434695 183.07856982 165.24578616 181.43233693 165.2518692 179.78612137 C165.30904554 163.22892746 164.22654819 147.52122773 152.11621094 134.92285156 C144.87174341 128.34031507 135.39621681 123.83578333 126.9375 119 C125.2211132 118.01428388 123.50472872 117.0285637 121.78848267 116.04260254 C120.02332425 115.02894176 118.25755668 114.01634868 116.49169922 113.00390625 C110.9880492 109.84707262 105.49465798 106.67244881 100 103.5 C97.83337945 102.24992007 95.66671268 100.99992024 93.5 99.75 C80.5 92.25 67.5 84.75 54.5 77.25 C53.4267749 76.63084717 52.3535498 76.01169434 51.24780273 75.3737793 C49.08840605 74.1279423 46.92906331 72.88201182 44.76977539 71.63598633 C39.24232403 68.44651047 33.71384879 65.25883115 28.18359375 62.07421875 C27.063479 61.42880127 25.94336426 60.78338379 24.78930664 60.1184082 C22.57681324 58.84383538 20.36377069 57.57021529 18.15014648 56.29760742 C12.63420135 53.12096689 7.15197688 49.89978259 1.70751953 46.60229492 C-8.08400005 40.71467849 -16.33255681 36.72934207 -27.9375 36.4375 C-29.01052368 36.39665283 -29.01052368 36.39665283 -30.10522461 36.35498047 C-41.27413067 36.43783399 -51.33323745 43.04846666 -60.75 48.4375 Z " fill="#000000" transform="translate(284,4)"/>
<path d="M0 0 C4.77962454 3.24495276 8.96137632 7.10901052 13.1640625 11.05859375 C15.7859254 13.48474012 18.4720466 15.75564176 21.25 18 C25.49877302 21.43286355 29.67291832 24.93725459 33.8125 28.5 C38.36041581 32.41336618 42.91716471 36.31505274 47.5 40.1875 C48.03222168 40.63722168 48.56444336 41.08694336 49.11279297 41.55029297 C50.1846334 42.45568442 51.25657326 43.36095817 52.32861328 44.26611328 C53.94766495 45.63358545 55.56580844 47.00212372 57.18359375 48.37109375 C57.72121338 48.82572998 58.25883301 49.28036621 58.81274414 49.7487793 C59.89014074 50.66136902 60.96616733 51.57557881 62.04077148 52.49145508 C64.84192104 54.87487816 67.66608396 57.2190967 70.5390625 59.515625 C71.12880859 59.99451172 71.71855469 60.47339844 72.32617188 60.96679688 C73.44611478 61.87509703 74.5745223 62.77310492 75.71289062 63.65820312 C80.67629744 67.71803145 82.20141471 71.83839139 83.8125 77.9375 C84.02503993 84.20742802 82.35967259 89.44729823 78.9375 94.6875 C75.65940604 98.17959416 71.82187982 101.09249614 68.08984375 104.078125 C64.68169632 106.80980518 61.3703598 109.64828629 58.0625 112.5 C51.91788271 117.78826263 45.74063586 123.03612549 39.54638672 128.26611328 C37.38460337 130.09198371 35.22450688 131.91984243 33.06469727 133.74804688 C31.98092045 134.66515134 30.89677383 135.58181898 29.81225586 136.49804688 C27.09630511 138.79323952 24.38635842 141.09487957 21.6875 143.41015625 C-2.58913062 164.19007788 -2.58913062 164.19007788 -14.0234375 163.92578125 C-19.53241839 163.38054792 -23.07054688 161.76515094 -26.84765625 157.70703125 C-30.85265122 152.35756988 -32.51695973 147.31205034 -32.0625 140.625 C-30.18687543 130.82220743 -22.6712974 125.12466704 -15.25390625 119.2109375 C-11.60147367 116.28391701 -8.08603392 113.20492194 -4.5625 110.125 C0.55678111 105.65980299 5.74021332 101.30154355 11.02734375 97.03515625 C13.3446629 95.11598053 15.61822549 93.16809494 17.87890625 91.18359375 C18.56082031 90.58546875 19.24273437 89.98734375 19.9453125 89.37109375 C21.29682718 88.1814525 22.64460389 86.98754879 23.98828125 85.7890625 C28.71881526 81.625 28.71881526 81.625 30.9375 81.625 C30.9375 80.965 30.9375 80.305 30.9375 79.625 C30.34525635 79.35115479 29.7530127 79.07730957 29.14282227 78.79516602 C27.01632035 77.66682286 25.44644637 76.49420306 23.65234375 74.90234375 C23.04519531 74.36867188 22.43804687 73.835 21.8125 73.28515625 C21.173125 72.71667969 20.53375 72.14820313 19.875 71.5625 C18.52058686 70.37249539 17.16511261 69.18369743 15.80859375 67.99609375 C15.14585449 67.41585449 14.48311523 66.83561523 13.80029297 66.23779297 C11.3869934 64.14837528 8.92089328 62.13038675 6.4375 60.125 C1.35640926 56.01173607 -3.57206275 51.73851362 -8.49365234 47.43725586 C-12.32644488 44.09719479 -16.21611956 40.86139299 -20.1875 37.6875 C-26.25967524 32.7341208 -30.71464813 28.71211123 -32.0625 20.625 C-32.35252366 13.90983685 -30.88554043 8.93636015 -26.84765625 3.54296875 C-19.88431501 -3.93843289 -8.81673551 -4.93400779 0 0 Z " fill="#000000" transform="translate(161.0625,175.375)"/>
<path d="M0 0 C0.90310913 -0.0049649 1.80621826 -0.00992981 2.73669434 -0.01504517 C5.7180254 -0.02962388 8.69930324 -0.03646189 11.68066406 -0.04199219 C13.75946046 -0.04774747 15.83825684 -0.05350516 17.91705322 -0.05926514 C22.27478278 -0.06976313 26.63249396 -0.07561356 30.99023438 -0.07910156 C36.55957458 -0.0845816 42.12866974 -0.10860437 47.6979332 -0.13707352 C51.99262185 -0.15574679 56.28725204 -0.16090801 60.58197784 -0.16243744 C62.63437488 -0.16545425 64.68677113 -0.17344978 66.73912811 -0.18662262 C69.61793881 -0.20378008 72.49615816 -0.20177916 75.375 -0.1953125 C76.21375671 -0.20452728 77.05251343 -0.21374207 77.91668701 -0.22323608 C85.0997458 -0.1729852 91.1411601 1.41454308 97.25878906 5.22363281 C101.99032831 10.39531524 104.36851656 16.15622342 104.07128906 23.22363281 C103.20362258 28.67876365 100.90768727 33.29745411 96.94628906 37.16113281 C91.01600824 41.07520541 85.78444565 41.74452083 78.80175781 41.69458008 C77.81857574 41.70319565 76.83539368 41.71181122 75.82241821 41.72068787 C72.59260261 41.74327531 69.36365968 41.73662251 66.13378906 41.72753906 C63.87752018 41.73277748 61.62125349 41.73905476 59.36499023 41.74632263 C54.64426339 41.75671328 49.92383825 41.75218379 45.203125 41.73754883 C39.16382716 41.72035531 33.12548024 41.74387128 27.08628845 41.77903843 C22.4295831 41.80103254 17.77310462 41.79956611 13.11636353 41.79127312 C10.89009559 41.79045487 8.66381078 41.797294 6.43759155 41.81204414 C3.32141172 41.82952848 0.20693277 41.81491446 -2.90917969 41.79223633 C-4.27784683 41.80977463 -4.27784683 41.80977463 -5.67416382 41.82766724 C-11.99856168 41.73435888 -16.12678452 40.14957434 -21.05371094 36.16113281 C-26.38993019 30.54405991 -27.46581728 25.36155326 -27.30371094 17.81347656 C-26.72781753 11.7036074 -23.52240385 8.09783847 -19.05371094 4.16113281 C-12.99016984 -0.08334596 -7.14208604 0.00942766 0 0 Z " fill="#000000" transform="translate(279.0537109375,297.8388671875)"/>
</svg>
